<svg width="344" height="15" viewBox="0 0 344 15" fill="none" xmlns="http://www.w3.org/2000/svg">
<path fill-rule="evenodd" clip-rule="evenodd" d="M326.885 2.17931C343.025 3.53773 340.388 2.52112 339.957 3.19064C341.109 3.41704 342.274 3.6452 344 3.98436C342.655 4.4865 341.807 4.80364 340.948 5.12342C341.141 5.24147 341.41 5.40709 341.682 5.57358C341.483 5.65111 341.256 5.8176 341.053 5.80968C336.053 5.61146 331.219 6.52764 326.178 6.34265C321.121 6.15765 315.966 6.0537 310.96 6.37965C306.882 6.64393 302.84 6.72586 298.765 6.80514C297.509 6.82893 296.483 6.2616 294.956 6.71528C293.813 7.05533 292.037 6.78312 290.541 6.78312H285.611C284.116 6.78312 282.623 6.78047 281.129 6.784C279.641 6.78576 278.151 6.79193 276.663 6.81043C276.554 6.81131 276.451 6.91614 276.073 7.11876C277.475 7.21566 278.659 7.29671 279.845 7.37687C279.838 7.47906 279.831 7.58037 279.826 7.68168C278.268 7.70282 276.709 7.73189 275.152 7.7407C273.507 7.75127 271.865 7.74687 270.221 7.73982C269.941 7.73894 269.525 7.74687 269.403 7.65965C267.749 6.4695 265.885 6.61662 263.681 7.22623C262.854 7.45439 261.624 7.26323 260.578 7.26323C246.533 7.26323 232.487 7.2509 218.443 7.28085C216.914 7.28437 215.148 6.8809 213.872 7.73894C213.813 7.77682 213.509 7.7777 213.446 7.73894C212.185 6.94433 210.748 8.13008 209.745 7.70987C208.449 7.16809 207.578 7.26235 206.358 7.70634C205.986 7.84289 205.013 7.59887 204.406 7.43325C203.558 7.20068 203.612 6.87914 204.398 6.59724C204.243 6.49857 204.118 6.34529 203.927 6.31534C203.668 6.27569 203.199 6.27569 203.102 6.35674C202.808 6.60164 202.77 6.95754 202.41 7.15047C201.931 7.4077 201.246 7.70458 200.644 7.70899C199.608 7.71603 198.332 7.25442 197.582 7.45175C196.377 7.76977 195.621 7.73013 194.427 7.46937C193.613 7.2923 192.408 7.71956 191.372 7.72837C187.2 7.76537 183.027 7.74334 178.952 7.74334C178.541 7.38568 178.194 7.08352 177.847 6.78312C177.288 7.03771 176.731 7.29318 175.687 7.76977C173.942 8.00586 170.917 7.11523 169.095 8.73793C168.559 8.42167 168.062 8.12831 167.62 7.86756C164.075 8.39876 160.645 8.47541 157.22 7.84729C153.678 8.72295 150.008 7.96005 146.428 8.26046C146.505 7.81822 146.693 7.31697 146.581 7.29759C145.187 7.04652 145.41 7.72837 145.019 8.18558H140.27C140.03 8.53531 139.839 8.81281 139.639 9.10704C139.43 9.05154 139.141 9.02511 139.032 8.93526C138.18 8.23931 136.725 7.95389 135.576 8.26486C132.884 8.99516 130.115 8.60843 127.391 8.69036C125.044 8.76083 122.685 8.70445 120.286 9.05242C121.723 9.12995 123.16 9.20835 124.597 9.28499C121.312 9.43916 117.819 10.432 115.361 8.83747C113.638 8.9705 112.26 9.15725 110.875 9.17047C106.575 9.21011 102.272 9.18456 98.0612 9.18456C97.7965 9.59332 97.614 9.8717 97.346 10.2884C96.6208 9.70344 96.0305 9.22685 95.4402 8.75026C95.136 9.4092 94.429 10.0928 93.1464 9.62063C91.7899 9.12114 91.0138 9.46382 89.7723 9.59684C87.5032 9.8391 85.0779 9.66556 82.6492 9.97653C83.7624 10.0699 84.8756 10.1633 86.0464 10.2628C85.8606 10.4188 85.7389 10.6126 85.6139 10.6135C82.327 10.6302 79.0302 10.7086 75.7531 10.6002C73.336 10.5201 71.0027 9.94041 68.5034 10.1483C68.0972 10.1827 67.6993 10.2452 67.2915 10.5165C68.4902 10.5844 69.6889 10.6513 70.8893 10.7183C67.1403 10.9253 63.4686 11.4733 59.69 10.7227C58.0177 10.3906 55.9262 10.6672 53.9086 10.9227C54.7324 11.031 55.5578 11.1394 56.4096 11.2513C56.2632 11.3772 56.1465 11.5728 56.0215 11.5737C54.5318 11.5904 53.0421 11.5772 51.5523 11.5719C50.7516 10.5588 49.5545 12.0635 48.3377 11.3975C47.5452 10.9649 45.896 11.9824 44.2944 11.1931C43.4213 10.765 41.213 11.1173 39.5441 11.4283C40.6967 11.5243 41.8494 11.6221 43.0744 11.7243C42.8129 11.8776 42.6551 12.0547 42.489 12.0564C40.2495 12.0741 38.0034 12.0159 35.7671 12.0793C31.4048 12.2018 26.9784 12.1921 22.718 12.6273C20.4209 12.8616 18.1682 12.9101 15.8958 13.0581C13.9457 13.184 12.0449 13.5523 11.2836 14.9345C10.5058 14.9345 8.77766 15.0992 8.62474 14.9063C7.95881 14.0623 5.93468 13.9742 5.48085 13.2483C5.05334 12.5621 4.34958 12.3507 3.28901 12.0318C1.14978 11.3878 0.689378 10.1562 1.77132 8.95552C1.18267 8.62076 0.585788 8.28336 0.00370747 7.95213C0.0300162 7.77858 -0.0620643 7.5698 0.0924994 7.4773C1.76804 6.45893 3.73132 5.93741 6.40824 5.75946C10.7936 5.46787 15.0802 4.74814 19.5741 4.8609C22.1491 4.01872 25.0019 4.52879 27.7183 4.37198C29.8427 4.25041 31.9458 3.99846 34.0735 3.91741C36.1535 3.83725 38.472 4.20196 40.2955 3.82756C42.9198 3.29018 45.4915 3.35801 48.0368 3.46197C51.309 3.59587 54.3246 2.88847 57.5326 2.92988C60.8179 2.9704 64.243 3.25671 67.3655 2.87085C73.3919 2.12558 79.456 2.86733 85.3886 2.40924C92.7436 1.84103 100.169 2.39338 107.422 1.89477C117.191 1.22173 126.922 1.73268 136.656 1.50011C137.848 1.47192 139.045 1.50363 140.241 1.49482C141.247 1.48777 142.352 1.63753 143.024 1.03761C143.557 1.7961 144.713 0.961852 145.645 1.32744C146.216 1.5512 147.637 1.08783 148.696 1.03057C149.88 0.968019 151.083 1.01647 152.279 1.01647H155.416H159.002H162.588H165.726C166.921 1.01647 168.125 0.969781 169.31 1.02792C170.711 1.09752 172.097 0.844687 173.549 1.37678C174.248 1.63313 175.873 1.05435 177.086 1.03585C180.819 0.982114 184.558 1.05083 188.29 0.997971C189.68 0.979471 191.242 1.34682 192.427 0.546048C193.203 0.0201257 193.784 1.46399 194.96 0.677308C195.329 0.428883 197.192 0.387478 197.391 0.56631C198.521 1.57499 199.799 0.0439111 200.659 0.664975C201.879 1.54416 202.637 0.509929 203.62 0.543405C204.176 0.561905 204.725 0.654404 205.277 0.711665C206.244 0.813854 207.78 1.16711 208.081 0.972424C209.308 0.177814 210.741 0.956567 212.086 0.651761C213.479 0.334622 215.296 0.538119 216.927 0.538119C246.211 0.535477 275.497 0.559262 304.782 0.508167C308.687 0.50112 312.719 1.02616 316.512 0.0553634C318.507 0.973305 320.477 -0.045945 322.498 0.0016259C328.757 0.148743 335.035 0.0553634 341.737 0.0553634C341.512 0.429764 341.376 0.968019 341.149 0.979471C337.985 1.13452 334.92 1.59965 331.663 1.53535C325.097 1.40673 318.517 1.49482 311.943 1.50627C311.706 1.50716 311.469 1.65603 311.231 1.7362C311.53 1.81637 311.813 1.92913 312.129 1.97141C312.92 2.07624 313.645 2.60833 314.575 2.00136C314.815 1.84368 315.716 1.97758 316.313 1.97758C324.967 1.97758 333.62 1.97758 326.885 2.17931C311.27 2.29736 311.287 2.21191 311.303 2.12734C309.915 1.92736 308.546 1.66484 307.132 1.5512C306.382 1.4913 301.638 1.57939 300.957 1.5283C300.377 1.48425 299.481 1.36797 299.236 1.52037C298.017 2.27446 296.467 1.9626 295.072 1.96436C273.846 1.98286 252.62 1.98463 231.395 1.95732C230.149 1.95644 228.728 2.31057 227.597 1.64634C227.382 1.51949 226.601 1.45782 226.444 1.5468C225.085 2.33524 223.363 1.87891 221.821 1.96613C218.662 2.14408 215.431 1.6763 212.294 2.41276C211.407 2.62067 210.056 2.32115 208.948 2.18812C206.813 1.93177 204.695 1.74765 202.615 2.27269C201.889 2.45593 200.991 1.7688 200.392 2.41893C199.245 1.64546 197.319 1.77056 196.323 2.0507C194.66 2.51936 193.458 1.63137 192.057 1.97494C191.807 2.03572 191.431 2.01634 191.276 2.11148C190.54 2.5634 190.01 2.46033 189.047 2.1802C188.113 1.90887 186.649 1.83222 185.661 2.02603C184.38 2.27798 182.83 2.47179 181.845 2.36431C180.314 2.19781 179.018 2.42334 177.62 2.45153C166.684 2.66648 155.745 2.15993 144.794 2.88054C136.62 3.41792 128.333 2.6885 120.044 3.33511C112.505 3.92182 104.777 3.18271 97.0993 3.82932C91.0467 4.33938 84.7951 3.61613 78.6339 4.32441C75.7761 4.653 72.6618 4.27948 69.6922 4.40898C66.9676 4.52879 64.3071 4.19227 61.4444 4.72259C58.7757 5.2168 55.5496 4.8424 52.5702 4.86707C52.1098 4.87147 51.651 4.96221 51.1922 5.0133C51.8006 5.34101 52.3564 5.34982 52.9105 5.33925C58.1739 5.24147 63.4094 5.37361 68.704 4.93578C75.0625 4.41074 81.5722 5.07937 88.0688 4.45655C94.0968 3.87865 100.431 4.89262 106.5 3.8901C107.353 3.74915 108.08 4.81245 108.923 3.92975C109.895 4.72083 110.805 3.88041 111.743 3.86984C119.098 3.78791 126.493 4.2645 133.803 3.4373C134.783 3.3263 136.25 3.23556 136.811 3.52011C138.082 4.16496 138.703 3.15804 139.807 3.38092C140.722 3.56592 141.872 3.4188 142.918 3.4188C148.898 3.4188 154.878 3.44523 160.855 3.40118C162.393 3.38973 164.106 3.76501 165.486 2.9889C165.64 2.90257 166.447 3.18359 166.97 3.24525C167.664 3.32718 168.794 3.53332 169.004 3.38532C169.838 2.80126 170.331 3.31132 171.043 3.37123C171.752 3.43025 172.576 2.96864 173.349 2.96864C174.597 2.96864 176.055 2.63476 177.051 3.36947C177.918 2.81976 179.11 2.93781 180.23 2.94309C181.366 2.94838 182.631 2.74488 183.44 3.41087C184.245 2.72902 185.529 2.94661 186.661 2.94485C194.136 2.93252 201.612 3.03119 209.081 2.91226C216.431 2.79421 223.846 3.45932 231.134 2.45769C232.032 2.91931 233.198 2.67088 234.204 2.71405C235.503 2.77131 236.843 2.4806 238.167 2.47795C239.699 2.47531 241.375 2.19429 242.697 2.8964C244.16 2.03748 246.067 2.485 247.738 2.48148C267.468 2.44536 287.2 2.45945 306.931 2.45417C308.371 2.45417 309.813 2.40748 326.885 2.17931" fill="#FFBB38"/>
</svg>
